<svg width="24" height="24" viewBox="0 0 24 24" fill="none" xmlns="http://www.w3.org/2000/svg">
<path fill-rule="evenodd" clip-rule="evenodd" d="M12.0003 5.26717C13.7603 3.20717 17.0203 2.36717 19.6603 4.16717C21.0603 5.12717 21.9403 6.74717 22.0003 8.44717C22.1303 12.3272 18.7003 15.4372 13.4503 20.1972L13.3403 20.2972C12.5803 20.9972 11.4103 20.9972 10.6503 20.3072L10.5503 20.2172L10.4899 20.1623C5.27391 15.4233 1.86081 12.3223 2.00027 8.45717C2.06027 6.74717 2.94027 5.12717 4.34027 4.16717C6.98027 2.35717 10.2403 3.20717 12.0003 5.26717ZM12.0003 18.8272L12.1003 18.7272C16.8603 14.4172 20.0003 11.5672 20.0003 8.67717C20.0003 6.67717 18.5003 5.17717 16.5003 5.17717C14.9603 5.17717 13.4603 6.16717 12.9403 7.53717H11.0703C10.5403 6.16717 9.04027 5.17717 7.50027 5.17717C5.50027 5.17717 4.00027 6.67717 4.00027 8.67717C4.00027 11.5672 7.14027 14.4172 11.9003 18.7272L12.0003 18.8272Z" fill="#D9D9D9"/>
</svg>
