<svg width="17" height="17" viewBox="0 0 17 17" fill="none" xmlns="http://www.w3.org/2000/svg">
<path d="M8.5 6.8C9.435 6.8 10.2 6.035 10.2 5.1V1.7C10.2 0.765 9.435 0 8.5 0C7.565 0 6.8 0.765 6.8 1.7V5.1C6.8 6.035 7.565 6.8 8.5 6.8Z" fill="#D9D9D9"/>
<path d="M14.535 2.465C14.28 2.21 14.025 2.125 13.6 2.125C12.92 2.125 12.325 2.72 12.325 3.4C12.325 3.74 12.495 4.08 12.665 4.335C13.77 5.44 14.365 6.885 14.365 8.5C14.365 11.815 11.73 14.45 8.415 14.45C5.1 14.45 2.465 11.815 2.465 8.5C2.465 6.885 3.145 5.355 4.25 4.335C4.505 4.08 4.675 3.74 4.675 3.4C4.675 2.72 4.08 2.125 3.4 2.125C3.06 2.125 2.72 2.295 2.465 2.465C0.935 3.995 0 6.12 0 8.5C0 13.175 3.825 17 8.5 17C13.175 17 17 13.175 17 8.5C17 6.12 16.065 3.995 14.535 2.465Z" fill="#D9D9D9"/>
</svg>
