<svg width="24" height="24" viewBox="0 0 24 24" fill="none" xmlns="http://www.w3.org/2000/svg">
<path fill-rule="evenodd" clip-rule="evenodd" d="M16.08 8.04404C15.52 8.15404 15 7.72404 15 7.15404C15 6.74404 15.29 6.37404 15.7 6.28404L18.27 5.66404C18.9 5.51404 19.5 5.98404 19.5 6.63404V17.364C19.5 17.914 19.05 18.364 18.5 18.364C17.95 18.364 17.5 17.914 17.5 17.364V7.76404L16.08 8.04404ZM8.5 9.36404C8.5 8.81404 8.95 8.36404 9.5 8.36404C10.05 8.36404 10.5 8.81404 10.5 9.36404V12.364H13.5C14.05 12.364 14.5 12.814 14.5 13.364C14.5 13.914 14.05 14.364 13.5 14.364H10.5V17.364C10.5 17.914 10.05 18.364 9.5 18.364C8.95 18.364 8.5 17.914 8.5 17.364V14.364H5.5C4.95 14.364 4.5 13.914 4.5 13.364C4.5 12.814 4.95 12.364 5.5 12.364H8.5V9.36404Z" fill="#D9D9D9"/>
</svg>
