<svg width="24" height="24" viewBox="0 0 24 24" fill="none" xmlns="http://www.w3.org/2000/svg">
<path d="M6.35816 17.6485C7.98816 19.2785 10.2982 20.2185 12.8382 19.9585C16.5082 19.5885 19.5282 16.6085 19.9382 12.9385C20.4882 8.08854 16.7382 3.99854 12.0082 3.99854C8.81816 3.99854 6.07817 5.86854 4.79817 8.55854C4.47817 9.22854 4.95816 9.99854 5.69816 9.99854C6.06816 9.99854 6.41817 9.79854 6.57817 9.46854C7.70817 7.03854 10.4182 5.49854 13.3782 6.15854C15.5982 6.64854 17.3882 8.45854 17.8582 10.6785C18.6982 14.5585 15.7482 17.9985 12.0082 17.9985C10.3482 17.9985 8.86817 17.3085 7.78817 16.2185L9.29817 14.7085C9.92817 14.0785 9.48816 12.9985 8.59816 12.9985H5.00817C4.45817 12.9985 4.00817 13.4485 4.00817 13.9985V17.5885C4.00817 18.4785 5.08817 18.9285 5.71817 18.2985L6.35816 17.6485Z" fill="#D9D9D9"/>
</svg>
