<svg width="24" height="24" viewBox="0 0 24 24" fill="none" xmlns="http://www.w3.org/2000/svg">
<path fill-rule="evenodd" clip-rule="evenodd" d="M14.69 1.92566C15.59 2.78566 16.39 3.74566 17.09 4.77566C18.92 7.48566 20 10.7257 20 14.2157C20 18.6357 16.42 22.2157 12 22.2157C7.58 22.2157 4 18.6357 4 14.2157C4 11.6757 4.68 9.29566 5.87 7.25566C6.03 6.96566 6.2 6.69566 6.38 6.42566C6.62 6.05566 7.17 6.18566 7.28 6.60566C7.34 6.82566 7.38 6.94566 7.48 7.14566C8.03 8.47566 9.29 9.40566 10.83 9.40566C12.89 9.40566 14.24 7.73566 14.24 5.67566C14.24 4.56566 14.04 3.32566 13.85 2.38566C13.75 1.90566 14.34 1.58566 14.69 1.92566ZM8.49 16.0757C8.49 17.8157 9.93 19.2157 11.71 19.2157C14.36 19.2157 16.51 17.0657 16.5 14.4157C16.5 13.3457 16.38 12.2857 16.15 11.2657C16.07 10.8957 15.61 10.7757 15.33 11.0357C14.28 12.0257 12.77 12.6557 11.3 12.9557C9.54 13.3157 8.49 14.4557 8.49 16.0757Z" fill="#D9D9D9"/>
</svg>
